<?xml version="1.0" standalone="no"?>
<!DOCTYPE svg PUBLIC "-//W3C//DTD SVG 20010904//EN"
 "http://www.w3.org/TR/2001/REC-SVG-20010904/DTD/svg10.dtd">
<svg version="1.0" xmlns="http://www.w3.org/2000/svg"
 width="762.000000pt" height="742.000000pt" viewBox="0 0 762.000000 742.000000"
 preserveAspectRatio="xMidYMid meet">

<g transform="translate(0.000000,742.000000) scale(0.100000,-0.100000)"
fill="#000000" stroke="none">
<path d="M0 3710 l0 -3710 3810 0 3810 0 0 3710 0 3710 -3810 0 -3810 0 0
-3710z m5125 1718 c0 -14 -3 -24 -7 -21 -5 2 -8 -20 -8 -51 0 -48 -3 -57 -31
-80 -17 -14 -43 -26 -57 -26 -30 0 -29 0 -237 -368 l-98 -173 -23 41 c-13 23
-40 73 -60 111 -20 38 -41 69 -45 69 -5 0 -27 -28 -49 -62 -50 -76 -47 -74
-47 -42 0 18 2 22 8 13 5 -8 9 -9 9 -3 0 6 -9 19 -21 30 -15 13 -19 27 -16 48
4 26 3 27 -9 11 -7 -10 -11 -21 -9 -25 2 -4 -2 -7 -10 -7 -8 0 -11 5 -8 11 17
27 145 216 147 216 1 0 35 -45 76 -100 64 -87 75 -97 85 -82 7 9 56 94 110
187 87 150 98 175 96 213 -2 36 3 48 29 73 25 25 37 30 70 28 30 -3 45 2 62
18 25 26 44 13 43 -29z m-2115 -18 c163 -40 297 -126 368 -238 39 -59 82 -188
82 -241 l0 -41 -189 0 -189 0 -13 31 c-19 47 -56 87 -103 112 -57 30 -250 37
-326 12 -96 -32 -146 -95 -137 -172 9 -80 81 -128 287 -193 241 -75 436 -142
487 -167 102 -50 202 -173 237 -292 21 -71 21 -237 1 -316 -39 -149 -153 -285
-299 -355 -144 -70 -214 -84 -421 -84 -208 0 -289 16 -433 85 -173 83 -303
253 -327 427 l-7 52 204 0 203 0 28 -50 c42 -75 115 -123 222 -146 171 -37
362 11 418 105 27 47 32 112 11 156 -32 69 -56 79 -535 233 -190 62 -252 89
-322 141 -63 46 -129 139 -153 215 -9 28 -19 97 -21 153 -9 181 38 302 159
416 90 84 193 131 373 170 11 3 85 5 165 6 114 1 163 -3 230 -19z m956 -177
c236 -484 256 -526 247 -544 -14 -30 -248 -379 -254 -379 -3 0 -41 73 -84 163
-43 89 -163 335 -267 546 -103 211 -188 385 -188 387 0 2 103 4 230 4 l229 0
87 -177z m1144 -230 c33 -19 50 -51 50 -93 0 -38 -51 -90 -90 -90 -25 0 -37
-15 -130 -165 l-103 -164 -95 -3 -94 -3 -86 -135 c-82 -128 -86 -139 -92 -205
l-7 -70 -1 67 c-1 37 -6 69 -11 72 -5 4 -8 -8 -5 -26 2 -18 1 -26 -3 -18 -3 8
-10 18 -16 21 -11 8 1 51 13 44 4 -3 7 1 6 8 0 6 37 76 84 154 l85 142 95 1
95 0 92 152 c85 140 91 153 77 172 -19 28 -17 86 4 112 37 46 85 55 132 27z
m-710 -127 c0 -2 -8 -10 -17 -17 -16 -13 -17 -12 -4 4 13 16 21 21 21 13z
m412 -583 c27 -24 24 -88 -4 -107 -27 -17 -91 -29 -82 -15 3 5 1 9 -5 9 -6 0
-17 -12 -25 -27 -18 -33 -21 -25 -4 12 6 14 16 25 22 25 6 0 3 5 -6 11 -23 13
-24 66 -1 91 20 23 80 24 105 1z m-378 -149 c3 -8 2 -12 -4 -9 -6 3 -10 10
-10 16 0 14 7 11 14 -7z m228 -46 c-7 -7 -12 -8 -12 -2 0 6 3 14 7 17 3 4 9 5
12 2 2 -3 -1 -11 -7 -17z m-3262 -1214 c127 -29 215 -117 236 -236 l6 -38 -79
0 -79 0 -21 49 c-29 70 -67 91 -161 91 -117 0 -182 -45 -182 -127 0 -71 46
-106 180 -138 271 -63 342 -114 357 -260 20 -196 -185 -343 -428 -306 -163 26
-267 114 -292 249 l-6 32 83 0 84 0 12 -35 c6 -20 28 -47 48 -63 33 -26 41
-27 142 -27 101 0 108 1 143 28 74 56 69 145 -11 186 -20 10 -86 31 -146 45
-142 35 -210 62 -251 97 -104 92 -100 294 8 385 87 74 221 99 357 68z m520
-89 l0 -75 -80 0 -80 0 0 75 0 75 80 0 80 0 0 -75z m1372 -65 c27 -74 55 -151
63 -170 8 -19 46 -124 86 -233 40 -108 74 -196 75 -194 4 4 75 202 119 332 36
105 121 346 134 378 10 26 12 27 94 27 l84 0 -87 -232 c-48 -128 -96 -260
-108 -293 -27 -77 -71 -196 -114 -310 l-34 -90 -91 -3 c-79 -2 -91 0 -98 15
-3 10 -45 119 -92 243 -47 124 -94 245 -103 270 -21 55 -106 276 -131 345 -11
27 -19 51 -19 53 0 1 39 1 87 0 l86 -3 49 -135z m878 65 l0 -75 -80 0 -80 0 0
75 0 75 80 0 80 0 0 -75z m940 0 l0 -75 -74 0 c-85 0 -86 1 -86 91 l0 59 80 0
80 0 0 -75z m-2840 -85 l0 -90 85 0 85 0 0 -60 0 -59 -86 -3 -86 -3 1 -200 1
-200 26 -22 c20 -18 37 -23 85 -23 l59 0 0 -54 0 -54 -64 -7 c-127 -13 -208
15 -243 85 -15 30 -18 70 -21 258 l-3 222 -50 0 -49 0 0 60 0 60 50 0 50 0 0
90 0 90 80 0 80 0 0 -90z m3470 -112 c115 -59 174 -165 174 -318 1 -194 -104
-327 -286 -360 -111 -21 -240 21 -312 101 -125 140 -123 392 6 521 72 72 155
100 278 93 59 -4 89 -12 140 -37z m738 20 c45 -13 98 -62 125 -112 20 -39 22
-57 25 -303 l4 -263 -81 0 -81 0 0 230 c0 250 -3 267 -56 309 -40 31 -127 29
-177 -4 -61 -42 -67 -68 -67 -316 l0 -219 -80 0 -80 0 0 340 0 340 75 0 75 0
0 -27 c0 -48 13 -56 41 -27 62 66 166 86 277 52z m-3547 2 c59 -16 102 -52
134 -110 l30 -55 3 -257 4 -258 -76 0 -76 0 0 41 0 42 -43 -40 c-36 -33 -55
-42 -109 -53 -166 -31 -288 54 -288 200 0 141 94 201 339 217 l103 6 -5 50
c-8 60 -27 84 -80 98 -76 20 -170 -14 -183 -67 -6 -23 -10 -24 -76 -24 l-71 0
6 41 c9 66 74 136 153 164 46 17 183 19 235 5z m1792 -24 c60 -29 98 -74 111
-128 l6 -28 -73 0 c-69 0 -74 2 -95 29 -40 54 -153 67 -211 24 -68 -51 -26
-119 85 -138 87 -15 195 -46 228 -66 114 -67 109 -244 -10 -318 -90 -56 -280
-63 -379 -14 -64 32 -115 97 -115 148 0 25 1 25 73 25 69 0 74 -2 85 -25 27
-59 173 -86 239 -45 40 24 51 61 29 96 -21 31 -45 40 -166 65 -172 36 -236 84
-248 185 -10 89 41 167 134 204 40 16 68 20 149 17 86 -2 108 -6 158 -31z
m-2803 -316 l0 -340 -80 0 -80 0 0 340 0 340 80 0 80 0 0 -340z m2242 0 l-3
-340 -74 0 -75 0 0 340 0 340 78 0 77 0 -3 -340z m948 0 l0 -340 -75 0 -75 0
0 340 0 340 75 0 75 0 0 -340z"/>
<path d="M5030 4952 c-18 -14 -21 -25 -16 -45 8 -35 49 -46 76 -22 26 24 25
50 -2 69 -28 20 -31 20 -58 -2z"/>
<path d="M4744 4272 c-12 -8 -34 -46 -34 -59 0 -4 5 -1 10 7 5 8 10 10 10 4 0
-18 29 -25 51 -14 25 14 25 46 0 60 -23 12 -23 12 -37 2z"/>
<path d="M4778 4199 c-7 -5 -21 -6 -30 -3 -13 4 -16 1 -12 -9 4 -12 12 -13 37
-6 17 5 34 12 39 17 11 11 -17 11 -34 1z"/>
<path d="M5545 2503 c-54 -10 -67 -16 -99 -44 -51 -45 -70 -102 -64 -199 4
-69 9 -87 34 -122 42 -60 75 -81 137 -86 75 -6 137 22 173 80 25 38 28 55 31
138 4 85 1 99 -19 134 -43 73 -119 112 -193 99z"/>
<path d="M2815 2243 c-69 -9 -125 -35 -140 -63 -28 -54 -15 -99 35 -125 42
-22 89 -19 146 10 60 30 94 82 94 144 l0 41 -52 -1 c-29 -1 -66 -4 -83 -6z"/>
</g>
</svg>
